<?xml version="1.0" encoding="UTF-8" standalone="no"?>
<svg
   xmlns:dc="http://purl.org/dc/elements/1.1/"
   xmlns:cc="http://creativecommons.org/ns#"
   xmlns:rdf="http://www.w3.org/1999/02/22-rdf-syntax-ns#"
   xmlns:svg="http://www.w3.org/2000/svg"
   xmlns="http://www.w3.org/2000/svg"
   xmlns:sodipodi="http://sodipodi.sourceforge.net/DTD/sodipodi-0.dtd"
   xmlns:inkscape="http://www.inkscape.org/namespaces/inkscape"
   height="512"
   preserveAspectRatio="xMidYMid"
   viewBox="0 0 512 512"
   width="512"
   version="1.1"
   id="svg14"
   sodipodi:docname="if_Gmail_1063082.svg"
   inkscape:version="0.92.3 (2405546, 2018-03-11)">
  <metadata
     id="metadata18">
    <rdf:RDF>
      <cc:Work
         rdf:about="">
        <dc:format>image/svg+xml</dc:format>
        <dc:type
           rdf:resource="http://purl.org/dc/dcmitype/StillImage" />
      </cc:Work>
    </rdf:RDF>
  </metadata>
  <sodipodi:namedview
     pagecolor="#ffffff"
     bordercolor="#666666"
     borderopacity="1"
     objecttolerance="10"
     gridtolerance="10"
     guidetolerance="10"
     inkscape:pageopacity="0"
     inkscape:pageshadow="2"
     inkscape:window-width="1366"
     inkscape:window-height="719"
     id="namedview16"
     showgrid="false"
     inkscape:zoom="0.921875"
     inkscape:cx="15.221582"
     inkscape:cy="225.50166"
     inkscape:window-x="0"
     inkscape:window-y="25"
     inkscape:window-maximized="1"
     inkscape:current-layer="g12" />
  <defs
     id="defs4">
    <style
       id="style2">
      .cls-1 {
        fill: #3498db;
      }

      .cls-2 {
        fill: #000;
        opacity: 0.3;
      }

      .cls-2, .cls-3 {
        fill-rule: evenodd;
      }

      .cls-3 {
        fill: #fff;
      }
    </style>
  </defs>
  <g
     id="g12">
    <rect
       id="rect3730"
       width="471.67844"
       height="336.62518"
       x="19.694328"
       y="81.339775"
       style="fill:#3498db;fill-opacity:1;stroke-width:1.85824168"
       ry="58.455872" />
    <path
       class="cls-3"
       d="m 493.06985,105.98035 c -1.19113,23.82637 0,284.38159 0,284.38159 0,0 -5.75869,27.81974 -30.44915,27.81974 -83.48337,0 -376.868134,3.70347 -412.163577,3.09211 C 17.776208,420.94117 17.359962,390.36194 17.359962,390.36194 V 109.07246 C 16.508887,77.162737 57.518442,75.070357 57.518442,75.070357 L 462.1803,71.980101 c 0,0 32.08068,10.175732 30.88955,34.000249 z m -11.80541,11.04911 c 0,0 -6.89965,-33.427916 -35.21368,-31.69046 -29.97529,19.69364 -190.73551,138.2922 -190.73551,138.2922 L 64.577902,88.219275 c 0,0 -36.146518,-1.590654 -35.21368,28.810185 -0.479427,26.8776 0,270.82386 0,270.82386 0,0 8.140956,21.14121 46.950334,20.16749 L 79.24872,171.7714 255.31525,289.89611 428.44577,174.65167 l 2.93417,233.36914 c 42.3995,0 49.8845,-20.16749 49.8845,-20.16749 z"
       id="path10"
       inkscape:connector-curvature="0"
       style="fill:#ffffff;fill-rule:evenodd;stroke-width:1.85824168" />
  </g>
</svg>
